# xmcd
#
# Track frame offsets: 
#        150
#        21525
#        41611
#        60432
#        78947
#        111353
#        127504
#        145435
#        163801
#        180178
#        198935
#        214152
#        237585
#        246887
#        267874
#
# Disc length: 3915 seconds
#
# Revision: 0
# Processed by: cddbd v1.5.1PL0 Copyright (c) Steve Scherf et al.
# Submitted via: ExactAudioCopy v0.95a5
#
DISCID=cf0f490f
DTITLE=Juke Joint Blues Band - Blues ain't nothing
DYEAR=2000
DGENRE=Blues
TTITLE0=Blues Aint Nothing
TTITLE1=I Got The Blues
TTITLE2=Walking The Dog
TTITLE3=How Long
TTITLE4=Rock Me (Babe)
TTITLE5=Trouble No More
TTITLE6=Aint Superstitious
TTITLE7=Born Under A Bad Sign
TTITLE8=I Want All My Money Back
TTITLE9=Easy Baby
TTITLE10=Feel So Glad
TTITLE11=Juke Joint Blues
TTITLE12=Down The Dirt Road Boogie
TTITLE13=Who LIVE!
TTITLE14=Mojo Working LIVE!
EXTD=
EXTT0=
EXTT1=
EXTT2=
EXTT3=
EXTT4=
EXTT5=
EXTT6=
EXTT7=
EXTT8=
EXTT9=
EXTT10=
EXTT11=
EXTT12=
EXTT13=
EXTT14=
PLAYORDER=
